<?xml version="1.0" encoding="UTF-8" standalone="no"?>
<!-- Created with Inkscape (http://www.inkscape.org/) -->

<svg
   xmlns:dc="http://purl.org/dc/elements/1.1/"
   xmlns:cc="http://creativecommons.org/ns#"
   xmlns:rdf="http://www.w3.org/1999/02/22-rdf-syntax-ns#"
   xmlns:svg="http://www.w3.org/2000/svg"
   xmlns="http://www.w3.org/2000/svg"
   xmlns:sodipodi="http://sodipodi.sourceforge.net/DTD/sodipodi-0.dtd"
   xmlns:inkscape="http://www.inkscape.org/namespaces/inkscape"
   width="256"
   height="256"
   id="svg2"
   version="1.1"
   inkscape:version="0.48.4 r9939"
   sodipodi:docname="logo.svg"
   inkscape:export-filename="/home/andrew/Github/ScaleIoT/web/img/logo.png"
   inkscape:export-xdpi="180"
   inkscape:export-ydpi="180">
  <defs
     id="defs4" />
  <sodipodi:namedview
     id="base"
     pagecolor="#ffffff"
     bordercolor="#666666"
     borderopacity="1.0"
     inkscape:pageopacity="0.0"
     inkscape:pageshadow="2"
     inkscape:zoom="1.979899"
     inkscape:cx="124.48217"
     inkscape:cy="142.87185"
     inkscape:document-units="px"
     inkscape:current-layer="layer1"
     showgrid="false"
     inkscape:window-width="1320"
     inkscape:window-height="747"
     inkscape:window-x="46"
     inkscape:window-y="21"
     inkscape:window-maximized="1" />
  <metadata
     id="metadata7">
    <rdf:RDF>
      <cc:Work
         rdf:about="">
        <dc:format>image/svg+xml</dc:format>
        <dc:type
           rdf:resource="http://purl.org/dc/dcmitype/StillImage" />
        <dc:title></dc:title>
      </cc:Work>
    </rdf:RDF>
  </metadata>
  <g
     inkscape:label="Layer 1"
     inkscape:groupmode="layer"
     id="layer1"
     transform="translate(0,-796.36218)">
    <rect
       style="fill:#00a6ff;fill-opacity:1;stroke:none"
       id="rect2985"
       width="233.85031"
       height="233.85031"
       x="-244.92516"
       y="-1041.2874"
       transform="scale(-1,-1)"
       rx="10.404494"
       ry="10.404494" />
    <rect
       style="fill:#0076b4;fill-opacity:1;stroke:none"
       id="rect3794"
       width="172.78893"
       height="44.219101"
       x="41.605537"
       y="822.80609"
       rx="11.735875"
       ry="11.735875" />
    <text
       xml:space="preserve"
       style="font-size:41.61797714px;font-style:normal;font-variant:normal;font-weight:normal;font-stretch:normal;line-height:125%;letter-spacing:0px;word-spacing:0px;fill:#000000;fill-opacity:1;stroke:none;font-family:Digital-7 Mono;-inkscape-font-specification:Digital-7 Mono"
       x="59.828022"
       y="857.17401"
       id="text2992"
       sodipodi:linespacing="125%"><tspan
         sodipodi:role="line"
         id="tspan2994"
         x="59.828022"
         y="857.17401"
         style="font-size:37.45618057px;fill:#ffffff">SCALEIOT</tspan></text>
    <g
       id="g3790"
       transform="matrix(1.0404494,0,0,1.0404494,-14.550081,-33.340369)">
      <path
         sodipodi:nodetypes="assasssaa"
         inkscape:connector-curvature="0"
         id="path3786"
         d="m 94.034283,882.3228 c 12.864757,0.17568 23.954707,15.62724 26.263967,28.28426 3.21095,17.59916 -0.0897,21.55968 -4.04061,31.31474 -3.59172,8.86812 -6.57482,19.26144 -7.07107,29.29442 -0.60458,12.22325 8.20261,27.24529 5.05076,36.36548 -4.83229,13.9828 -31.117612,14.6661 -31.819801,-2.0203 -1.263911,-30.03487 -1.83761,-30.65224 -11.111678,-60.60915 -3.59725,-11.61976 -7.158813,-24.92364 -3.030458,-36.36549 4.161833,-11.53462 13.497551,-26.43141 25.75889,-26.26396 z"
         style="fill:#0076b4;fill-opacity:1;stroke:none" />
      <path
         style="fill:#0076b4;fill-opacity:1;stroke:none"
         d="m 179.98208,882.3228 c -12.86476,0.17568 -23.95471,15.62724 -26.26397,28.28426 -3.21094,17.59916 0.0897,21.55968 4.04061,31.31474 3.59172,8.86812 6.57483,19.26144 7.07108,29.29442 0.60458,12.22325 -8.20261,27.24529 -5.05076,36.36548 4.83229,13.9828 31.11761,14.6661 31.8198,-2.0203 1.26391,-30.03487 1.83761,-30.65224 11.11167,-60.60915 3.59725,-11.61976 7.15882,-24.92364 3.03046,-36.36549 -4.16183,-11.53462 -13.49755,-26.43141 -25.75889,-26.26396 z"
         id="path3788"
         inkscape:connector-curvature="0"
         sodipodi:nodetypes="assasssaa" />
    </g>
  </g>
</svg>
