<?xml version="1.0" encoding="UTF-8" standalone="no"?>
<!-- Created with Inkscape (http://www.inkscape.org/) -->

<svg
   xmlns:dc="http://purl.org/dc/elements/1.1/"
   xmlns:cc="http://creativecommons.org/ns#"
   xmlns:rdf="http://www.w3.org/1999/02/22-rdf-syntax-ns#"
   xmlns:svg="http://www.w3.org/2000/svg"
   xmlns="http://www.w3.org/2000/svg"
   xmlns:sodipodi="http://sodipodi.sourceforge.net/DTD/sodipodi-0.dtd"
   xmlns:inkscape="http://www.inkscape.org/namespaces/inkscape"
   width="256"
   height="256"
   id="svg2"
   version="1.1"
   inkscape:version="0.48.4 r9939"
   sodipodi:docname="logo.svg"
   inkscape:export-filename="/home/andrew/Github/ScaleIoT/web/img/logo.png"
   inkscape:export-xdpi="180"
   inkscape:export-ydpi="180">
  <defs
     id="defs4" />
  <sodipodi:namedview
     id="base"
     pagecolor="#ffffff"
     bordercolor="#666666"
     borderopacity="1.0"
     inkscape:pageopacity="0.0"
     inkscape:pageshadow="2"
     inkscape:zoom="1.979899"
     inkscape:cx="50.235958"
     inkscape:cy="142.87185"
     inkscape:document-units="px"
     inkscape:current-layer="text2992"
     showgrid="false"
     inkscape:window-width="1320"
     inkscape:window-height="747"
     inkscape:window-x="46"
     inkscape:window-y="21"
     inkscape:window-maximized="1" />
  <metadata
     id="metadata7">
    <rdf:RDF>
      <cc:Work
         rdf:about="">
        <dc:format>image/svg+xml</dc:format>
        <dc:type
           rdf:resource="http://purl.org/dc/dcmitype/StillImage" />
        <dc:title />
      </cc:Work>
    </rdf:RDF>
  </metadata>
  <g
     inkscape:label="Layer 1"
     inkscape:groupmode="layer"
     id="layer1"
     transform="translate(0,-796.36218)">
    <rect
       style="fill:#00a6ff;fill-opacity:1;stroke:none"
       id="rect2985"
       width="233.85031"
       height="233.85031"
       x="-244.92516"
       y="-1041.2874"
       transform="scale(-1,-1)"
       rx="10.404494"
       ry="10.404494" />
    <rect
       style="fill:#0076b4;fill-opacity:1;stroke:none"
       id="rect3794"
       width="172.78893"
       height="44.219101"
       x="41.605537"
       y="822.80609"
       rx="11.735875"
       ry="11.735875" />
    <g
       style="font-size:41.61797714px;font-style:normal;font-variant:normal;font-weight:normal;font-stretch:normal;line-height:125%;letter-spacing:0px;word-spacing:0px;fill:#000000;fill-opacity:1;stroke:none;font-family:Digital-7 Mono;-inkscape-font-specification:Digital-7 Mono"
       id="text2992">
      <path
         style="font-size:37.45618057000000078px;fill:#ffffff;fill-opacity:1"
         d="M 62.9375 36.28125 C 62.029469 36.50828 61.445756 37.092 61.21875 38 L 63.9375 39.03125 L 72.78125 39.03125 L 75.5 38 C 75.272977 37.092 74.689264 36.50828 73.78125 36.28125 L 62.9375 36.28125 z M 79.96875 36.28125 C 79.060719 36.50828 78.508256 37.092 78.28125 38 L 81 39.03125 L 90.15625 39.03125 L 91.1875 36.28125 L 79.96875 36.28125 z M 97.03125 36.28125 C 96.12322 36.50828 95.539505 37.092 95.3125 38 L 98.03125 39.03125 L 106.1875 39.03125 L 107.1875 36.28125 L 97.03125 36.28125 z M 107.875 36.28125 L 106.84375 39.03125 L 106.84375 46.15625 L 108.90625 48.21875 L 109.59375 47.53125 L 109.59375 38 C 109.36673 37.092 108.78301 36.50828 107.875 36.28125 z M 114.03125 36.28125 C 113.12321 36.50828 112.53951 37.092 112.3125 38 L 112.3125 47.53125 L 113 48.21875 L 115.0625 46.15625 L 115.0625 39.03125 L 114.03125 36.28125 z M 131.09375 36.28125 C 130.18572 36.50828 129.63325 37.092 129.40625 38 L 132.125 39.03125 L 141.28125 39.03125 L 142.3125 36.28125 L 131.09375 36.28125 z M 152.875 36.28125 L 151.875 39.03125 L 151.875 46.15625 L 153.90625 48.21875 L 154.59375 47.53125 L 154.59375 38 C 154.36674 37.092 153.78302 36.50828 152.875 36.28125 z M 166.875 36.28125 L 165.5 37.65625 L 166.875 39.03125 L 174.34375 39.03125 L 175.71875 37.65625 L 174.34375 36.28125 L 166.875 36.28125 z M 182.25 36.28125 C 181.34197 36.50828 180.75825 37.092 180.53125 38 L 183.28125 39.03125 L 192.09375 39.03125 L 194.8125 38 C 194.58547 37.092 194.00177 36.50828 193.09375 36.28125 L 182.25 36.28125 z M 165.15625 38 L 163.46875 39.6875 L 163.46875 47.53125 L 164.15625 48.21875 L 166.1875 46.15625 L 166.1875 39.03125 L 165.15625 38 z M 176.0625 38 L 175.03125 39.03125 L 175.03125 46.15625 L 177.09375 48.21875 L 177.75 47.53125 L 177.75 39.6875 L 176.0625 38 z M 61.1875 38.6875 L 61.1875 47.53125 L 61.875 48.21875 L 63.90625 46.15625 L 63.90625 39.6875 L 61.1875 38.6875 z M 78.25 38.6875 L 78.25 47.53125 L 78.90625 48.21875 L 80.96875 46.15625 L 80.96875 39.6875 L 78.25 38.6875 z M 95.28125 38.6875 L 95.28125 47.53125 L 95.96875 48.21875 L 98 46.15625 L 98 39.6875 L 95.28125 38.6875 z M 129.375 38.6875 L 129.375 47.53125 L 130.0625 48.21875 L 132.09375 46.15625 L 132.09375 39.6875 L 129.375 38.6875 z M 186.3125 39.6875 L 186.3125 46.84375 L 187.65625 48.21875 L 189.03125 46.84375 L 189.03125 39.6875 L 186.3125 39.6875 z M 63.90625 47.1875 L 62.5625 48.5625 L 63.90625 49.90625 L 72.78125 49.90625 L 74.125 48.5625 L 72.78125 47.1875 L 63.90625 47.1875 z M 98 47.1875 L 96.65625 48.5625 L 98 49.90625 L 106.84375 49.90625 L 108.21875 48.5625 L 106.84375 47.1875 L 98 47.1875 z M 132.09375 47.1875 L 130.71875 48.5625 L 132.09375 49.90625 L 140.9375 49.90625 L 142.3125 48.5625 L 140.9375 47.1875 L 132.09375 47.1875 z M 153.90625 48.5625 L 151.875 50.59375 L 151.875 57.75 L 152.875 60.46875 C 153.78302 60.24174 154.36674 59.68928 154.59375 58.78125 L 154.59375 49.25 L 153.90625 48.5625 z M 74.8125 48.90625 L 72.78125 50.9375 L 72.78125 58.09375 L 73.78125 60.8125 C 74.689264 60.58549 75.272977 60.00178 75.5 59.09375 L 75.5 49.5625 L 74.8125 48.90625 z M 78.90625 48.90625 L 78.25 49.5625 L 78.25 58.4375 L 80.96875 57.40625 L 80.96875 50.9375 L 78.90625 48.90625 z M 95.96875 48.90625 L 95.28125 49.5625 L 95.28125 59.09375 C 95.508255 60.00178 96.06072 60.58549 96.96875 60.8125 L 98 58.09375 L 98 50.9375 L 95.96875 48.90625 z M 108.90625 48.90625 L 106.84375 50.9375 L 106.84375 58.09375 L 107.875 60.8125 C 108.78301 60.58549 109.36673 60.00178 109.59375 59.09375 L 109.59375 49.5625 L 108.90625 48.90625 z M 113 48.90625 L 112.3125 49.5625 L 112.3125 59.09375 C 112.53951 60.00178 113.12321 60.58549 114.03125 60.8125 L 115.0625 58.09375 L 115.0625 50.9375 L 113 48.90625 z M 130.0625 48.90625 L 129.375 49.5625 L 129.375 58.4375 L 132.09375 57.40625 L 132.09375 50.9375 L 130.0625 48.90625 z M 164.15625 48.90625 L 163.46875 49.5625 L 163.46875 57.40625 L 165.15625 59.09375 L 166.1875 58.09375 L 166.1875 50.9375 L 164.15625 48.90625 z M 177.09375 48.90625 L 175.03125 50.9375 L 175.03125 58.09375 L 176.0625 59.09375 L 177.75 57.40625 L 177.75 49.5625 L 177.09375 48.90625 z M 187.65625 48.90625 L 186.3125 50.25 L 186.3125 58.09375 L 187.3125 60.8125 C 188.22052 60.58549 188.80424 60.00178 189.03125 59.09375 L 189.03125 50.25 L 187.65625 48.90625 z M 63.90625 58.09375 L 61.1875 59.09375 C 61.414505 60.00178 61.998219 60.58549 62.90625 60.8125 L 73.09375 60.8125 L 72.09375 58.09375 L 63.90625 58.09375 z M 80.96875 58.09375 L 78.25 59.09375 C 78.477006 60.00178 79.029469 60.58549 79.9375 60.8125 L 91.1875 60.8125 L 90.15625 58.09375 L 80.96875 58.09375 z M 115.71875 58.09375 L 114.71875 60.8125 L 124.9375 60.8125 C 125.84551 60.58549 126.39798 60.00178 126.625 59.09375 L 123.90625 58.09375 L 115.71875 58.09375 z M 132.09375 58.09375 L 129.375 59.09375 C 129.602 60.00178 130.15447 60.58549 131.0625 60.8125 L 142.3125 60.8125 L 141.28125 58.09375 L 132.09375 58.09375 z M 166.875 58.09375 L 165.5 59.4375 L 166.875 60.8125 L 174.34375 60.8125 L 175.71875 59.4375 L 174.34375 58.09375 L 166.875 58.09375 z "
         transform="translate(0,796.36218)"
         id="path3115" />
    </g>
    <g
       id="g3790"
       transform="matrix(1.0404494,0,0,1.0404494,-14.550081,-33.340369)">
      <path
         sodipodi:nodetypes="assasssaa"
         inkscape:connector-curvature="0"
         id="path3786"
         d="m 94.034283,882.3228 c 12.864757,0.17568 23.954707,15.62724 26.263967,28.28426 3.21095,17.59916 -0.0897,21.55968 -4.04061,31.31474 -3.59172,8.86812 -6.57482,19.26144 -7.07107,29.29442 -0.60458,12.22325 8.20261,27.24529 5.05076,36.36548 -4.83229,13.9828 -31.117612,14.6661 -31.819801,-2.0203 -1.263911,-30.03487 -1.83761,-30.65224 -11.111678,-60.60915 -3.59725,-11.61976 -7.158813,-24.92364 -3.030458,-36.36549 4.161833,-11.53462 13.497551,-26.43141 25.75889,-26.26396 z"
         style="fill:#0076b4;fill-opacity:1;stroke:none" />
      <path
         style="fill:#0076b4;fill-opacity:1;stroke:none"
         d="m 179.98208,882.3228 c -12.86476,0.17568 -23.95471,15.62724 -26.26397,28.28426 -3.21094,17.59916 0.0897,21.55968 4.04061,31.31474 3.59172,8.86812 6.57483,19.26144 7.07108,29.29442 0.60458,12.22325 -8.20261,27.24529 -5.05076,36.36548 4.83229,13.9828 31.11761,14.6661 31.8198,-2.0203 1.26391,-30.03487 1.83761,-30.65224 11.11167,-60.60915 3.59725,-11.61976 7.15882,-24.92364 3.03046,-36.36549 -4.16183,-11.53462 -13.49755,-26.43141 -25.75889,-26.26396 z"
         id="path3788"
         inkscape:connector-curvature="0"
         sodipodi:nodetypes="assasssaa" />
    </g>
  </g>
</svg>
